<svg xmlns="http://www.w3.org/2000/svg" viewBox="0 0 1200 1800" width="1200" height="1800">
  <defs>
    <linearGradient id="bg" x1="0%" y1="0%" x2="100%" y2="100%">
      <stop offset="0%"   stop-color="#180C04"/>
      <stop offset="50%"  stop-color="#221008"/>
      <stop offset="100%" stop-color="#120804"/>
    </linearGradient>
    <radialGradient id="glow1" cx="20%" cy="20%" r="55%">
      <stop offset="0%" stop-color="#D8A14A" stop-opacity="0.18"/>
      <stop offset="100%" stop-color="#D8A14A" stop-opacity="0"/>
    </radialGradient>
    <radialGradient id="glow2" cx="80%" cy="80%" r="50%">
      <stop offset="0%" stop-color="#7A5890" stop-opacity="0.16"/>
      <stop offset="100%" stop-color="#7A5890" stop-opacity="0"/>
    </radialGradient>
  </defs>

  <rect width="1200" height="1800" fill="url(#bg)"/>
  <rect width="1200" height="1800" fill="url(#glow1)"/>
  <rect width="1200" height="1800" fill="url(#glow2)"/>

  <!-- Corner brackets -->
  <line x1="60" y1="60" x2="220" y2="60"   stroke="#D8A14A" stroke-width="5" stroke-linecap="round"/>
  <line x1="60" y1="60" x2="60"  y2="220"  stroke="#D8A14A" stroke-width="5" stroke-linecap="round"/>
  <line x1="1140" y1="60"  x2="980"  y2="60"  stroke="#D8A14A" stroke-width="5" stroke-linecap="round"/>
  <line x1="1140" y1="60"  x2="1140" y2="220" stroke="#D8A14A" stroke-width="5" stroke-linecap="round"/>
  <line x1="60"   y1="1740" x2="220"  y2="1740" stroke="#D8A14A" stroke-width="5" stroke-linecap="round"/>
  <line x1="60"   y1="1740" x2="60"   y2="1580" stroke="#D8A14A" stroke-width="5" stroke-linecap="round"/>
  <line x1="1140" y1="1740" x2="980"  y2="1740" stroke="#D8A14A" stroke-width="5" stroke-linecap="round"/>
  <line x1="1140" y1="1740" x2="1140" y2="1580" stroke="#D8A14A" stroke-width="5" stroke-linecap="round"/>

  <!-- FORK — drawn with absolute coords, centred at x=560 -->
  <g stroke="#D8A14A" stroke-width="18" fill="none" stroke-linecap="round" stroke-linejoin="round">
    <!-- 3 tines -->
    <line x1="496" y1="160" x2="496" y2="320"/>
    <line x1="556" y1="160" x2="556" y2="320"/>
    <line x1="616" y1="160" x2="616" y2="320"/>
    <!-- curved bridge -->
    <path d="M496,320 Q496,370 556,375 Q616,370 616,320"/>
    <!-- handle -->
    <line x1="556" y1="375" x2="556" y2="530"/>
  </g>

  <!-- HEART — gold fill, to the right of fork -->
  <path d="M740,305 C695,269 650,233 650,188 C650,125 704,125 740,161 C776,125 830,125 830,188 C830,233 785,269 740,305 Z"
        fill="#E8A050"/>

  <!-- Divider -->
  <line x1="300" y1="590" x2="900" y2="590" stroke="#D8A14A" stroke-width="1.5" opacity="0.5"/>

  <!-- DIDINA -->
  <text x="600" y="760"
        text-anchor="middle"
        font-family="Georgia,'Times New Roman',serif"
        font-style="italic"
        font-size="192"
        font-weight="bold"
        fill="#F0E8D8">Didina</text>

  <!-- SoulFood -->
  <text x="600" y="920"
        text-anchor="middle"
        font-family="Georgia,'Times New Roman',serif"
        font-style="italic"
        font-size="138"
        fill="#D8A14A">SoulFood</text>

  <!-- Rule -->
  <line x1="130" y1="985" x2="1070" y2="985" stroke="#C9773A" stroke-width="1" opacity="0.4"/>

  <!-- RIZNICA -->
  <text x="600" y="1095"
        text-anchor="middle"
        font-family="Georgia,'Times New Roman',serif"
        font-size="86"
        font-weight="bold"
        fill="#C9773A"
        letter-spacing="26">RIZNICA</text>

  <!-- Subtitle -->
  <text x="600" y="1205"
        text-anchor="middle"
        font-family="Georgia,'Times New Roman',serif"
        font-style="italic"
        font-size="52"
        fill="#C8A070"
        opacity="0.70">recepti za svaki dan</text>

  <!-- Heart divider -->
  <text x="600" y="1590" text-anchor="middle" font-size="38" fill="#E8A050" opacity="0.80">♥</text>

  <!-- Author -->
  <text x="600" y="1678"
        text-anchor="middle"
        font-family="Georgia,'Times New Roman',serif"
        font-size="54"
        fill="#C8A070"
        letter-spacing="2">Dragana Stamenković</text>
</svg>
